<mxfile host="app.diagrams.net" modified="2023-02-01T09:51:17.835Z" agent="5.0 (Windows NT 10.0; Win64; x64) AppleWebKit/537.36 (KHTML, like Gecko) Chrome/109.0.0.0 Safari/537.36" etag="OFXzq14mpycYEnjeOcsU" version="20.8.13" type="github">
  <diagram name="第 1 页" id="lXjAn0b42ie3BU2o3VOK">
    <mxGraphModel dx="724" dy="395" grid="1" gridSize="10" guides="1" tooltips="1" connect="1" arrows="1" fold="1" page="1" pageScale="1" pageWidth="827" pageHeight="1169" math="0" shadow="0">
      <root>
        <mxCell id="0" />
        <mxCell id="1" parent="0" />
        <mxCell id="8SEkOSAJCDnNiKlcCs8w-1" value="负载均衡" style="rounded=0;whiteSpace=wrap;html=1;" vertex="1" parent="1">
          <mxGeometry x="260" y="250" width="90" height="50" as="geometry" />
        </mxCell>
        <mxCell id="8SEkOSAJCDnNiKlcCs8w-3" style="edgeStyle=orthogonalEdgeStyle;rounded=0;orthogonalLoop=1;jettySize=auto;html=1;" edge="1" parent="1" source="8SEkOSAJCDnNiKlcCs8w-2" target="8SEkOSAJCDnNiKlcCs8w-1">
          <mxGeometry relative="1" as="geometry" />
        </mxCell>
        <mxCell id="8SEkOSAJCDnNiKlcCs8w-2" value="用户/系统" style="rounded=1;whiteSpace=wrap;html=1;" vertex="1" parent="1">
          <mxGeometry x="80" y="250" width="90" height="50" as="geometry" />
        </mxCell>
        <mxCell id="8SEkOSAJCDnNiKlcCs8w-4" value="手册文件" style="text;html=1;strokeColor=none;fillColor=none;align=center;verticalAlign=middle;whiteSpace=wrap;rounded=0;" vertex="1" parent="1">
          <mxGeometry x="180" y="210" width="60" height="30" as="geometry" />
        </mxCell>
        <mxCell id="8SEkOSAJCDnNiKlcCs8w-6" value="" style="verticalLabelPosition=bottom;html=1;verticalAlign=top;align=center;strokeColor=none;fillColor=#00BEF2;shape=mxgraph.azure.cloud_services_configuration_file;pointerEvents=1;" vertex="1" parent="1">
          <mxGeometry x="180" y="150" width="47.5" height="50" as="geometry" />
        </mxCell>
        <mxCell id="8SEkOSAJCDnNiKlcCs8w-7" value="" style="rounded=0;whiteSpace=wrap;html=1;dashed=1;" vertex="1" parent="1">
          <mxGeometry x="400" y="150" width="250" height="300" as="geometry" />
        </mxCell>
        <mxCell id="8SEkOSAJCDnNiKlcCs8w-8" value="资料管理服务集群" style="text;html=1;strokeColor=none;fillColor=none;align=center;verticalAlign=middle;whiteSpace=wrap;rounded=0;" vertex="1" parent="1">
          <mxGeometry x="455" y="160" width="60" height="30" as="geometry" />
        </mxCell>
        <mxCell id="8SEkOSAJCDnNiKlcCs8w-9" value="" style="rounded=0;whiteSpace=wrap;html=1;" vertex="1" parent="1">
          <mxGeometry x="430" y="200" width="190" height="70" as="geometry" />
        </mxCell>
        <mxCell id="8SEkOSAJCDnNiKlcCs8w-10" value="资料管理微服务" style="text;html=1;strokeColor=none;fillColor=none;align=center;verticalAlign=middle;whiteSpace=wrap;rounded=0;" vertex="1" parent="1">
          <mxGeometry x="475" y="200" width="100" height="30" as="geometry" />
        </mxCell>
        <mxCell id="8SEkOSAJCDnNiKlcCs8w-14" value="解析任务队列" style="rounded=1;whiteSpace=wrap;html=1;" vertex="1" parent="1">
          <mxGeometry x="465" y="230" width="120" height="30" as="geometry" />
        </mxCell>
        <mxCell id="8SEkOSAJCDnNiKlcCs8w-15" value="" style="rounded=0;whiteSpace=wrap;html=1;" vertex="1" parent="1">
          <mxGeometry x="430" y="290" width="190" height="70" as="geometry" />
        </mxCell>
        <mxCell id="8SEkOSAJCDnNiKlcCs8w-16" value="资料管理微服务" style="text;html=1;strokeColor=none;fillColor=none;align=center;verticalAlign=middle;whiteSpace=wrap;rounded=0;" vertex="1" parent="1">
          <mxGeometry x="475" y="290" width="100" height="30" as="geometry" />
        </mxCell>
        <mxCell id="8SEkOSAJCDnNiKlcCs8w-17" value="解析任务队列" style="rounded=1;whiteSpace=wrap;html=1;" vertex="1" parent="1">
          <mxGeometry x="465" y="320" width="120" height="30" as="geometry" />
        </mxCell>
        <mxCell id="8SEkOSAJCDnNiKlcCs8w-18" value="" style="rounded=0;whiteSpace=wrap;html=1;" vertex="1" parent="1">
          <mxGeometry x="430" y="370" width="190" height="70" as="geometry" />
        </mxCell>
        <mxCell id="8SEkOSAJCDnNiKlcCs8w-19" value="资料管理微服务" style="text;html=1;strokeColor=none;fillColor=none;align=center;verticalAlign=middle;whiteSpace=wrap;rounded=0;" vertex="1" parent="1">
          <mxGeometry x="475" y="370" width="100" height="30" as="geometry" />
        </mxCell>
        <mxCell id="8SEkOSAJCDnNiKlcCs8w-20" value="解析任务队列" style="rounded=1;whiteSpace=wrap;html=1;" vertex="1" parent="1">
          <mxGeometry x="465" y="400" width="120" height="30" as="geometry" />
        </mxCell>
      </root>
    </mxGraphModel>
  </diagram>
</mxfile>
